<svg width="29" height="32" viewBox="0 0 29 32" fill="none" xmlns="http://www.w3.org/2000/svg">
<path d="M14.6285 31.5665C15.5992 31.5677 16.5461 31.2665 17.3376 30.7047C18.1292 30.1429 18.726 29.3485 19.0453 28.4318H10.2117C10.5309 29.3485 11.1278 30.1429 11.9194 30.7047C12.7109 31.2665 13.6578 31.5677 14.6285 31.5665ZM25.5999 19.9462V12.7584C25.5999 7.7163 22.1752 3.46882 17.5359 2.19144C17.0767 1.03474 15.9545 0.219727 14.6285 0.219727C13.3025 0.219727 12.1803 1.03474 11.7211 2.19144C7.08177 3.47039 3.65714 7.7163 3.65714 12.7584V19.9462L0.981692 22.6217C0.835863 22.767 0.720213 22.9397 0.641399 23.1299C0.562585 23.32 0.522164 23.5239 0.522463 23.7298V25.2971C0.522463 25.7128 0.687592 26.1115 0.981525 26.4054C1.27546 26.6993 1.67412 26.8645 2.0898 26.8645H27.1672C27.5829 26.8645 27.9815 26.6993 28.2755 26.4054C28.5694 26.1115 28.7345 25.7128 28.7345 25.2971V23.7298C28.7348 23.5239 28.6944 23.32 28.6156 23.1299C28.5368 22.9397 28.4211 22.767 28.2753 22.6217L25.5999 19.9462Z" fill="white"/>
</svg>
