<svg width="12" height="11" viewBox="0 0 12 11" fill="none" xmlns="http://www.w3.org/2000/svg">
<path d="M3.30006 4.76667C2.89443 4.76667 2.56672 5.09438 2.56672 5.5C2.56672 5.90563 2.89443 6.23334 3.30006 6.23334C3.70568 6.23334 4.03339 5.90563 4.03339 5.5C4.03339 5.09438 3.70568 4.76667 3.30006 4.76667ZM5.86672 4.76667C5.4611 4.76667 5.13339 5.09438 5.13339 5.5C5.13339 5.90563 5.4611 6.23334 5.86672 6.23334C6.27235 6.23334 6.60006 5.90563 6.60006 5.5C6.60006 5.09438 6.27235 4.76667 5.86672 4.76667ZM8.43339 4.76667C8.02776 4.76667 7.70006 5.09438 7.70006 5.5C7.70006 5.90563 8.02776 6.23334 8.43339 6.23334C8.83902 6.23334 9.16672 5.90563 9.16672 5.5C9.16672 5.09438 8.83902 4.76667 8.43339 4.76667ZM5.86672 0.733337C2.62631 0.733337 5.60941e-05 2.86688 5.60941e-05 5.5C5.60941e-05 6.59084 0.456098 7.59 1.21235 8.39438C0.870889 9.29729 0.160473 10.0627 0.149014 10.0719C-0.00223557 10.2323 -0.0434856 10.466 0.0435978 10.6677C0.130681 10.8694 0.330056 11 0.550056 11C1.95943 11 3.07089 10.411 3.73776 9.93896C4.40006 10.1475 5.11506 10.2667 5.86672 10.2667C9.10714 10.2667 11.7334 8.13313 11.7334 5.5C11.7334 2.86688 9.10714 0.733337 5.86672 0.733337ZM5.86672 9.16667C5.25485 9.16667 4.64985 9.07271 4.07006 8.88938L3.54985 8.72438L3.10297 9.04063C2.77526 9.27209 2.3261 9.53104 1.78526 9.70521C1.95256 9.42792 2.11526 9.11625 2.24131 8.78396L2.48422 8.14L2.01214 7.64042C1.59735 7.19813 1.10006 6.46709 1.10006 5.5C1.10006 3.47875 3.23818 1.83334 5.86672 1.83334C8.49527 1.83334 10.6334 3.47875 10.6334 5.5C10.6334 7.52125 8.49527 9.16667 5.86672 9.16667Z" fill="white"/>
</svg>
