<svg width="32" height="32" viewBox="0 0 32 32" fill="none" xmlns="http://www.w3.org/2000/svg">
<path fill-rule="evenodd" clip-rule="evenodd" d="M12.2198 28.0387C12.2198 25.8586 13.9871 24.0913 16.1672 24.0913C18.3472 24.0913 20.1145 25.8586 20.1145 28.0387C20.1145 30.2188 18.3472 31.986 16.1672 31.986C13.9871 31.986 12.2198 30.2188 12.2198 28.0387ZM24.0619 16.1966C24.0619 14.0165 25.8292 12.2492 28.0093 12.2492C30.1893 12.2492 31.9566 14.0165 31.9566 16.1966C31.9566 18.3766 30.1893 20.1439 28.0093 20.1439C25.8292 20.1439 24.0619 18.3766 24.0619 16.1966ZM0.377686 16.1966C0.377686 14.0165 2.14498 12.2492 4.32505 12.2492C6.50512 12.2492 8.27242 14.0165 8.27242 16.1966C8.27242 18.3766 6.50512 20.1439 4.32505 20.1439C2.14498 20.1439 0.377686 18.3766 0.377686 16.1966ZM12.2198 4.35447C12.2198 2.1744 13.9871 0.407104 16.1672 0.407104C18.3472 0.407104 20.1145 2.1744 20.1145 4.35447C20.1145 6.53454 18.3472 8.30184 16.1672 8.30184C13.9871 8.30184 12.2198 6.53454 12.2198 4.35447Z" fill="white"/>
</svg>
