<svg width="12" height="12" viewBox="0 0 12 12" fill="none" xmlns="http://www.w3.org/2000/svg">
<path d="M0.891826 7.15462C1.04973 7.06346 1.23738 7.03876 1.4135 7.08594C1.58962 7.13313 1.73978 7.24835 1.83095 7.40625C2.25323 8.13821 2.8609 8.746 3.59278 9.16843C4.32466 9.59085 5.15491 9.813 5.99995 9.8125C6.84499 9.813 7.67525 9.59085 8.40713 9.16843C9.13901 8.746 9.74668 8.13821 10.169 7.40625C10.2138 7.32743 10.2737 7.25825 10.3454 7.2027C10.417 7.14715 10.499 7.10632 10.5865 7.08257C10.674 7.05881 10.7653 7.0526 10.8552 7.06429C10.9451 7.07597 11.0318 7.10533 11.1104 7.15066C11.1889 7.196 11.2577 7.25641 11.3127 7.32844C11.3678 7.40046 11.4081 7.48267 11.4313 7.57032C11.4544 7.65798 11.4601 7.74935 11.4478 7.83918C11.4355 7.92902 11.4056 8.01553 11.3597 8.09375C10.8167 9.03473 10.0355 9.8161 9.09461 10.3592C8.15371 10.9023 7.08635 11.188 5.99995 11.1875C4.91356 11.188 3.8462 10.9023 2.9053 10.3592C1.9644 9.8161 1.18316 9.03473 0.640202 8.09375C0.549038 7.93585 0.524333 7.74819 0.571521 7.57208C0.61871 7.39596 0.733926 7.2458 0.891826 7.15462ZM4.62495 2.9375C4.62495 4.076 4.00895 5 3.24995 5C2.49095 5 1.87495 4.076 1.87495 2.9375C1.87495 1.799 2.49095 0.875 3.24995 0.875C4.00895 0.875 4.62495 1.799 4.62495 2.9375ZM10.125 2.9375C10.125 4.076 9.50895 5 8.74995 5C7.99095 5 7.37495 4.076 7.37495 2.9375C7.37495 1.799 7.99095 0.875 8.74995 0.875C9.50895 0.875 10.125 1.799 10.125 2.9375Z" fill="white" fill-opacity="0.25"/>
</svg>
