<svg width="22" height="22" viewBox="0 0 22 22" fill="none" xmlns="http://www.w3.org/2000/svg">
<path d="M11 20.625C8.44729 20.625 5.99913 19.6109 4.1941 17.8059C2.38906 16.0009 1.375 13.5527 1.375 11C1.375 8.44729 2.38906 5.99913 4.1941 4.1941C5.99913 2.38906 8.44729 1.375 11 1.375C13.5527 1.375 16.0009 2.38906 17.8059 4.1941C19.6109 5.99913 20.625 8.44729 20.625 11C20.625 13.5527 19.6109 16.0009 17.8059 17.8059C16.0009 19.6109 13.5527 20.625 11 20.625ZM11 22C13.9174 22 16.7153 20.8411 18.7782 18.7782C20.8411 16.7153 22 13.9174 22 11C22 8.08262 20.8411 5.28473 18.7782 3.22183C16.7153 1.15893 13.9174 0 11 0C8.08262 0 5.28473 1.15893 3.22183 3.22183C1.15893 5.28473 0 8.08262 0 11C0 13.9174 1.15893 16.7153 3.22183 18.7782C5.28473 20.8411 8.08262 22 11 22Z" fill="white" fill-opacity="0.25"/>
</svg>
