<svg width="34" height="33" viewBox="0 0 34 33" fill="none" xmlns="http://www.w3.org/2000/svg">
<path d="M33.2737 16.2428L18.1428 1.12292C18.0339 1.01376 17.9045 0.927157 17.762 0.868068C17.6196 0.808979 17.4668 0.778564 17.3126 0.778564C17.1584 0.778564 17.0057 0.808979 16.8632 0.868068C16.7208 0.927157 16.5914 1.01376 16.4824 1.12292L1.3515 16.2428C0.910683 16.6836 0.660889 17.2824 0.660889 17.9069C0.660889 19.2036 1.71517 20.2579 3.01189 20.2579H4.60617V31.0468C4.60617 31.697 5.13147 32.2223 5.78167 32.2223H14.9616V23.9938H19.0759V32.2223H28.8436C29.4938 32.2223 30.0191 31.697 30.0191 31.0468V20.2579H31.6133C32.2378 20.2579 32.8366 20.0118 33.2774 19.5673C34.1921 18.6489 34.1921 17.1612 33.2737 16.2428Z" fill="#1090F2"/>
</svg>
