<svg width="48" height="39" viewBox="0 0 48 39" fill="none" xmlns="http://www.w3.org/2000/svg">
<path d="M48 4.7491C46.2026 5.54155 44.2961 6.06172 42.3439 6.2923C44.3773 5.07939 45.9386 3.15868 46.6738 0.870184C44.7408 2.01179 42.6259 2.81613 40.4205 3.24844C38.6241 1.34378 36.0649 0.153442 33.2323 0.153442C27.7937 0.153442 23.3843 4.5416 23.3843 9.95382C23.3843 10.7221 23.4714 11.47 23.6392 12.1875C15.4549 11.7786 8.19862 7.87693 3.34144 1.94744C2.49394 3.39492 2.00831 5.07864 2.00831 6.8745C2.00831 10.2748 3.747 13.2744 6.38925 15.032C4.82541 14.9833 3.29597 14.5629 1.92863 13.8061C1.92806 13.8471 1.92806 13.8882 1.92806 13.9294C1.92806 18.6779 5.32256 22.6391 9.82744 23.5394C8.37729 23.9319 6.85618 23.9894 5.38031 23.7074C6.63338 27.601 10.2703 30.4344 14.5794 30.5137C11.2091 33.1422 6.96281 34.7091 2.34919 34.7091C1.55419 34.7091 0.770438 34.6627 0 34.5722C4.35806 37.3529 9.53438 38.9754 15.0956 38.9754C33.2094 38.9754 43.1145 24.0414 43.1145 11.0904C43.1145 10.6653 43.1051 10.2427 43.086 9.82246C45.0139 8.43541 46.678 6.71741 48 4.7491Z" fill="#1090F2"/>
</svg>
