<svg width="34" height="29" viewBox="0 0 34 29" fill="none" xmlns="http://www.w3.org/2000/svg">
<path d="M5.69043 0.264648C4.21244 0.264648 2.79499 0.851776 1.7499 1.89687C0.704803 2.94196 0.117676 4.35942 0.117676 5.8374V6.39747L16.8359 15.4003L33.5542 6.40025V5.8374C33.5542 4.35942 32.9671 2.94196 31.922 1.89687C30.8769 0.851776 29.4594 0.264648 27.9815 0.264648H5.69043ZM33.5542 9.56279L17.4963 18.2089C17.2934 18.3182 17.0664 18.3754 16.8359 18.3754C16.6054 18.3754 16.3785 18.3182 16.1756 18.2089L0.117676 9.56279V22.5557C0.117676 24.0337 0.704803 25.4511 1.7499 26.4962C2.79499 27.5413 4.21244 28.1284 5.69043 28.1284H27.9815C29.4594 28.1284 30.8769 27.5413 31.922 26.4962C32.9671 25.4511 33.5542 24.0337 33.5542 22.5557V9.56279Z" fill="white"/>
</svg>
