<svg width="31" height="31" viewBox="0 0 31 31" fill="none" xmlns="http://www.w3.org/2000/svg">
<path fill-rule="evenodd" clip-rule="evenodd" d="M23.1394 26.9488C23.1394 24.897 24.8027 23.2336 26.8546 23.2336C28.9064 23.2336 30.5697 24.897 30.5697 26.9488C30.5697 29.0007 28.9064 30.664 26.8546 30.664C24.8027 30.664 23.1394 29.0007 23.1394 26.9488ZM11.9939 26.9488C11.9939 24.897 13.6572 23.2336 15.7091 23.2336C17.7609 23.2336 19.4242 24.897 19.4242 26.9488C19.4242 29.0007 17.7609 30.664 15.7091 30.664C13.6572 30.664 11.9939 29.0007 11.9939 26.9488ZM0.848389 26.9488C0.848389 24.897 2.51173 23.2336 4.56356 23.2336C6.61539 23.2336 8.27873 24.897 8.27873 26.9488C8.27873 29.0007 6.61539 30.664 4.56356 30.664C2.51173 30.664 0.848389 29.0007 0.848389 26.9488ZM23.1394 15.8033C23.1394 13.7515 24.8027 12.0881 26.8546 12.0881C28.9064 12.0881 30.5697 13.7515 30.5697 15.8033C30.5697 17.8551 28.9064 19.5185 26.8546 19.5185C24.8027 19.5185 23.1394 17.8551 23.1394 15.8033ZM11.9939 15.8033C11.9939 13.7515 13.6572 12.0881 15.7091 12.0881C17.7609 12.0881 19.4242 13.7515 19.4242 15.8033C19.4242 17.8551 17.7609 19.5185 15.7091 19.5185C13.6572 19.5185 11.9939 17.8551 11.9939 15.8033ZM0.848389 15.8033C0.848389 13.7515 2.51173 12.0881 4.56356 12.0881C6.61539 12.0881 8.27873 13.7515 8.27873 15.8033C8.27873 17.8551 6.61539 19.5185 4.56356 19.5185C2.51173 19.5185 0.848389 17.8551 0.848389 15.8033ZM23.1394 4.6578C23.1394 2.60596 24.8027 0.942627 26.8546 0.942627C28.9064 0.942627 30.5697 2.60596 30.5697 4.6578C30.5697 6.70963 28.9064 8.37297 26.8546 8.37297C24.8027 8.37297 23.1394 6.70963 23.1394 4.6578ZM11.9939 4.6578C11.9939 2.60596 13.6572 0.942627 15.7091 0.942627C17.7609 0.942627 19.4242 2.60596 19.4242 4.6578C19.4242 6.70963 17.7609 8.37297 15.7091 8.37297C13.6572 8.37297 11.9939 6.70963 11.9939 4.6578ZM0.848389 4.6578C0.848389 2.60596 2.51173 0.942627 4.56356 0.942627C6.61539 0.942627 8.27873 2.60596 8.27873 4.6578C8.27873 6.70963 6.61539 8.37297 4.56356 8.37297C2.51173 8.37297 0.848389 6.70963 0.848389 4.6578Z" fill="white"/>
</svg>
