<svg width="14" height="9" viewBox="0 0 14 9" fill="none" xmlns="http://www.w3.org/2000/svg">
<path d="M12.6856 3.55558L11.9173 4.09594V2.34623C11.9173 1.74584 11.7039 1.22693 11.277 0.789502C10.8502 0.352075 10.338 0.133362 9.74038 0.133362H4.25967C3.66208 0.133362 3.14987 0.352075 2.72302 0.789502C2.29617 1.22693 2.08275 1.74584 2.08275 2.34623C2.08275 2.50061 2.13397 2.62927 2.23641 2.73219C2.33886 2.83512 2.46691 2.88658 2.62058 2.88658C2.79132 2.88658 2.92791 2.83512 3.03035 2.73219C3.13279 2.62927 3.18401 2.50061 3.18401 2.34623C3.18401 2.03746 3.29073 1.77586 3.50415 1.56143C3.71757 1.34701 3.96941 1.23979 4.25967 1.23979H9.74038C10.0306 1.23979 10.2825 1.34701 10.4959 1.56143C10.7093 1.77586 10.816 2.03746 10.816 2.34623V4.04447L10.0477 3.47839C9.72331 3.2897 9.47574 3.34974 9.305 3.65851C9.10011 3.98443 9.15133 4.24174 9.45866 4.43044L11.3795 5.63979L13.3259 4.43044C13.6161 4.24174 13.6759 3.98443 13.5052 3.65851C13.2491 3.4012 12.9759 3.36689 12.6856 3.55558ZM11.3795 6.18015C11.2087 6.18015 11.0721 6.23161 10.9697 6.33453C10.8673 6.43746 10.816 6.56611 10.816 6.7205C10.816 7.02927 10.7093 7.29087 10.4959 7.50529C10.2825 7.71972 10.0306 7.82693 9.74038 7.82693H4.25967C3.96941 7.82693 3.71757 7.71972 3.50415 7.50529C3.29073 7.29087 3.18401 7.02927 3.18401 6.7205V5.02225L3.95234 5.58833C3.98649 5.58833 4.03771 5.59691 4.106 5.61406C4.1743 5.63122 4.22552 5.63979 4.25967 5.63979C4.39626 5.63979 4.54139 5.5626 4.69505 5.40822C4.89994 5.08229 4.84872 4.82498 4.54139 4.63629L2.62058 3.42693L0.674155 4.63629C0.383899 4.82498 0.324141 5.08229 0.494879 5.40822C0.682692 5.69983 0.9388 5.75987 1.2632 5.58833L2.03153 5.02225V6.7205C2.03153 7.32089 2.24495 7.8398 2.6718 8.27722C3.09864 8.71465 3.61086 8.93336 4.20845 8.93336H9.68916C10.2867 8.93336 10.799 8.71465 11.2258 8.27722C11.6527 7.8398 11.8661 7.32089 11.8661 6.7205C11.8832 6.56611 11.8447 6.43746 11.7508 6.33453C11.6569 6.23161 11.5331 6.18015 11.3795 6.18015Z" fill="white"/>
</svg>
