<svg width="13" height="17" viewBox="0 0 13 17" fill="none" xmlns="http://www.w3.org/2000/svg">
<path d="M12.0385 7.7084C12.2324 7.70843 12.4195 7.77962 12.5644 7.90847C12.7093 8.03732 12.8019 8.21487 12.8246 8.40745L12.8301 8.50007V13.2501C12.8301 14.0625 12.5179 14.8439 11.9579 15.4325C11.398 16.0212 10.6332 16.3722 9.82179 16.4128L9.66346 16.4167H3.33329C2.52085 16.4167 1.73949 16.1045 1.15082 15.5445C0.562147 14.9846 0.211207 14.2198 0.170584 13.4084L0.166626 13.2501V8.50007C0.16685 8.29829 0.244113 8.10421 0.382631 7.95749C0.521148 7.81076 0.710464 7.72247 0.911897 7.71064C1.11333 7.69882 1.31168 7.76435 1.46641 7.89386C1.62114 8.02337 1.72059 8.20708 1.74442 8.40745L1.74996 8.50007V13.2501C1.75003 13.6494 1.90099 14.0339 2.17258 14.3267C2.44417 14.6194 2.81635 14.7987 3.21454 14.8287L3.33329 14.8334H9.66346C10.0628 14.8333 10.4473 14.6824 10.7401 14.4108C11.0328 14.1392 11.2121 13.767 11.242 13.3688L11.2468 13.2501V8.50007C11.2468 8.29011 11.3302 8.08874 11.4787 7.94028C11.6271 7.79181 11.8285 7.7084 12.0385 7.7084ZM1.97875 4.77132L5.93471 0.815363C6.07093 0.67894 6.25225 0.596911 6.44465 0.584668C6.63704 0.572424 6.8273 0.630808 6.97971 0.748863L7.05413 0.814572L11.0148 4.77053C11.1571 4.91286 11.2398 5.10403 11.2462 5.30516C11.2525 5.50629 11.182 5.70229 11.049 5.85332C10.9161 6.00435 10.7306 6.09907 10.5302 6.11823C10.3299 6.13738 10.1298 6.07954 9.97063 5.95645L9.89621 5.89074L7.28846 3.28695V11.0769C7.28843 11.2709 7.21725 11.458 7.08839 11.6029C6.95954 11.7478 6.78199 11.8404 6.58942 11.8631L6.49679 11.8686C6.30289 11.8686 6.11574 11.7974 5.97083 11.6685C5.82593 11.5397 5.73336 11.3621 5.71067 11.1696L5.70513 11.0769V3.28299L3.09817 5.89074C2.96185 6.02704 2.78048 6.10893 2.58808 6.12103C2.39569 6.13312 2.20549 6.0746 2.05317 5.95645L1.97875 5.89074C1.84244 5.75442 1.76056 5.57305 1.74846 5.38065C1.73637 5.18826 1.79489 4.99806 1.91304 4.84574L1.97875 4.77053L5.93471 0.815363L1.97954 4.77053L1.97875 4.77132Z" fill="white"/>
</svg>
