<svg width="34" height="31" viewBox="0 0 34 31" fill="none" xmlns="http://www.w3.org/2000/svg">
<g filter="url(#filter0_d_7_33)">
<path d="M17.1579 6.47361H26.8289V7.85519H17.1579V6.47361ZM17.1579 16.1447H26.8289V17.5262H17.1579V16.1447ZM13.0131 10.6183H8.8684C8.50209 10.618 8.15089 10.4723 7.89188 10.2133C7.63286 9.95427 7.48718 9.60307 7.48682 9.23676V5.09203C7.48718 4.72572 7.63286 4.37453 7.89188 4.11551C8.15089 3.85649 8.50209 3.71081 8.8684 3.71045H13.0131C13.3794 3.71081 13.7306 3.85649 13.9897 4.11551C14.2487 4.37453 14.3943 4.72572 14.3947 5.09203V9.23676C14.3943 9.60307 14.2487 9.95427 13.9897 10.2133C13.7306 10.4723 13.3794 10.618 13.0131 10.6183ZM8.8684 5.09203V9.23676H13.0138L13.0131 5.09203H8.8684ZM13.0131 20.2894H8.8684C8.50209 20.289 8.15089 20.1434 7.89188 19.8843C7.63286 19.6253 7.48718 19.2741 7.48682 18.9078V14.7631C7.48718 14.3968 7.63286 14.0456 7.89188 13.7866C8.15089 13.5275 8.50209 13.3819 8.8684 13.3815H13.0131C13.3794 13.3819 13.7306 13.5275 13.9897 13.7866C14.2487 14.0456 14.3943 14.3968 14.3947 14.7631V18.9078C14.3943 19.2741 14.2487 19.6253 13.9897 19.8843C13.7306 20.1434 13.3794 20.289 13.0131 20.2894ZM8.8684 14.7631V18.9078H13.0138L13.0131 14.7631H8.8684Z" fill="#F1D020"/>
</g>
<defs>
<filter id="filter0_d_7_33" x="0.855238" y="0.39466" width="32.6053" height="29.8421" filterUnits="userSpaceOnUse" color-interpolation-filters="sRGB">
<feFlood flood-opacity="0" result="BackgroundImageFix"/>
<feColorMatrix in="SourceAlpha" type="matrix" values="0 0 0 0 0 0 0 0 0 0 0 0 0 0 0 0 0 0 127 0" result="hardAlpha"/>
<feOffset dy="3.31579"/>
<feGaussianBlur stdDeviation="3.31579"/>
<feComposite in2="hardAlpha" operator="out"/>
<feColorMatrix type="matrix" values="0 0 0 0 0.945833 0 0 0 0 0.814678 0 0 0 0 0.126111 0 0 0 1 0"/>
<feBlend mode="normal" in2="BackgroundImageFix" result="effect1_dropShadow_7_33"/>
<feBlend mode="normal" in="SourceGraphic" in2="effect1_dropShadow_7_33" result="shape"/>
</filter>
</defs>
</svg>
